<?xml version="1.0" encoding="UTF-8"?>
<svg width="500" height="500" version="1.1" viewBox="0 0 500.00001 500.00001" xmlns="http://www.w3.org/2000/svg">
 <g transform="translate(0 -552.36)" fill="#555">
  <path d="m269.73 630.56c-94.886-10.895-180.64 57.194-191.53 152.08-10.895 94.886 57.194 180.64 152.08 191.53s180.64-57.194 191.53-152.08c10.895-94.886-57.194-180.64-152.08-191.53zm-1.7746 15.455c86.351 9.915 148.31 87.953 138.4 174.3-9.915 86.351-87.953 148.31-174.3 138.4-86.351-9.915-148.31-87.953-138.4-174.3 9.915-86.351 87.953-148.31 174.3-138.4z"/>
  <path transform="translate(0 552.36)" d="m286.37 151.24c-15.997 0-31.994 6.0796-44.152 18.238-23.405 23.405-24.272 61.026-2.625 85.498l-6.2344 6.2363-1.5723-1.5723c-1.2666-1.2666-3.3057-1.2666-4.5723 0l-62.586 62.586c-1.2666 1.2666-1.2666 3.3076 0 4.5742l8.5723 8.5723c1.2666 1.2666 3.3076 1.2666 4.5742 0l62.586-62.586c1.2666-1.2666 1.2666-3.3057 0-4.5723l-1.5723-1.5723 6.2363-6.2363c24.472 21.649 62.093 20.782 85.498-2.623 24.317-24.317 24.317-63.987 0-88.305-12.159-12.159-28.155-18.238-44.152-18.238zm0 16.064c11.826 0 23.653 4.5357 32.723 13.605 18.14 18.14 18.14 47.304 0 65.443-18.14 18.14-47.304 18.14-65.443 0-18.14-18.14-18.14-47.304 0-65.443 9.0698-9.0698 20.895-13.605 32.721-13.605z" color="#000000" color-rendering="auto" image-rendering="auto" shape-rendering="auto" solid-color="#000000" style="block-progression:tb;isolation:auto;mix-blend-mode:normal;text-decoration-color:#000000;text-decoration-line:none;text-decoration-style:solid;text-indent:0;text-transform:none;white-space:normal"/>
 </g>
</svg>
